<?xml version="1.0" encoding="utf-8"?>
<svg xmlns="http://www.w3.org/2000/svg" xmlns:xlink="http://www.w3.org/1999/xlink" width="600" height="400" viewBox="0 0 2400 1600">
<defs>
  <clipPath id="clip520">
    <rect x="0" y="0" width="2400" height="1600"/>
  </clipPath>
</defs>
<path clip-path="url(#clip520)" d="M0 1600 L2400 1600 L2400 0 L0 0  Z" fill="#ffffff" fill-rule="evenodd" fill-opacity="1"/>
<defs>
  <clipPath id="clip521">
    <rect x="480" y="0" width="1681" height="1600"/>
  </clipPath>
</defs>
<path clip-path="url(#clip520)" d="M287.366 1423.18 L2352.76 1423.18 L2352.76 47.2441 L287.366 47.2441  Z" fill="#ffffff" fill-rule="evenodd" fill-opacity="1"/>
<defs>
  <clipPath id="clip522">
    <rect x="287" y="47" width="2066" height="1377"/>
  </clipPath>
</defs>
<polyline clip-path="url(#clip522)" style="stroke:#000000; stroke-linecap:round; stroke-linejoin:round; stroke-width:2; stroke-opacity:0.1; fill:none" points="345.82,1423.18 345.82,47.2441 "/>
<polyline clip-path="url(#clip522)" style="stroke:#000000; stroke-linecap:round; stroke-linejoin:round; stroke-width:2; stroke-opacity:0.1; fill:none" points="832.94,1423.18 832.94,47.2441 "/>
<polyline clip-path="url(#clip522)" style="stroke:#000000; stroke-linecap:round; stroke-linejoin:round; stroke-width:2; stroke-opacity:0.1; fill:none" points="1320.06,1423.18 1320.06,47.2441 "/>
<polyline clip-path="url(#clip522)" style="stroke:#000000; stroke-linecap:round; stroke-linejoin:round; stroke-width:2; stroke-opacity:0.1; fill:none" points="1807.18,1423.18 1807.18,47.2441 "/>
<polyline clip-path="url(#clip522)" style="stroke:#000000; stroke-linecap:round; stroke-linejoin:round; stroke-width:2; stroke-opacity:0.1; fill:none" points="2294.3,1423.18 2294.3,47.2441 "/>
<polyline clip-path="url(#clip520)" style="stroke:#000000; stroke-linecap:round; stroke-linejoin:round; stroke-width:4; stroke-opacity:1; fill:none" points="287.366,1423.18 2352.76,1423.18 "/>
<polyline clip-path="url(#clip520)" style="stroke:#000000; stroke-linecap:round; stroke-linejoin:round; stroke-width:4; stroke-opacity:1; fill:none" points="345.82,1423.18 345.82,1404.28 "/>
<polyline clip-path="url(#clip520)" style="stroke:#000000; stroke-linecap:round; stroke-linejoin:round; stroke-width:4; stroke-opacity:1; fill:none" points="832.94,1423.18 832.94,1404.28 "/>
<polyline clip-path="url(#clip520)" style="stroke:#000000; stroke-linecap:round; stroke-linejoin:round; stroke-width:4; stroke-opacity:1; fill:none" points="1320.06,1423.18 1320.06,1404.28 "/>
<polyline clip-path="url(#clip520)" style="stroke:#000000; stroke-linecap:round; stroke-linejoin:round; stroke-width:4; stroke-opacity:1; fill:none" points="1807.18,1423.18 1807.18,1404.28 "/>
<polyline clip-path="url(#clip520)" style="stroke:#000000; stroke-linecap:round; stroke-linejoin:round; stroke-width:4; stroke-opacity:1; fill:none" points="2294.3,1423.18 2294.3,1404.28 "/>
<path clip-path="url(#clip520)" d="M292.348 1468.75 L322.023 1468.75 L322.023 1472.69 L292.348 1472.69 L292.348 1468.75 Z" fill="#000000" fill-rule="nonzero" fill-opacity="1" /><path clip-path="url(#clip520)" d="M332.926 1481.64 L340.565 1481.64 L340.565 1455.28 L332.255 1456.95 L332.255 1452.69 L340.519 1451.02 L345.195 1451.02 L345.195 1481.64 L352.833 1481.64 L352.833 1485.58 L332.926 1485.58 L332.926 1481.64 Z" fill="#000000" fill-rule="nonzero" fill-opacity="1" /><path clip-path="url(#clip520)" d="M362.278 1479.7 L367.162 1479.7 L367.162 1485.58 L362.278 1485.58 L362.278 1479.7 Z" fill="#000000" fill-rule="nonzero" fill-opacity="1" /><path clip-path="url(#clip520)" d="M387.347 1454.1 Q383.736 1454.1 381.907 1457.66 Q380.102 1461.2 380.102 1468.33 Q380.102 1475.44 381.907 1479.01 Q383.736 1482.55 387.347 1482.55 Q390.981 1482.55 392.787 1479.01 Q394.616 1475.44 394.616 1468.33 Q394.616 1461.2 392.787 1457.66 Q390.981 1454.1 387.347 1454.1 M387.347 1450.39 Q393.157 1450.39 396.213 1455 Q399.292 1459.58 399.292 1468.33 Q399.292 1477.06 396.213 1481.67 Q393.157 1486.25 387.347 1486.25 Q381.537 1486.25 378.458 1481.67 Q375.403 1477.06 375.403 1468.33 Q375.403 1459.58 378.458 1455 Q381.537 1450.39 387.347 1450.39 Z" fill="#000000" fill-rule="nonzero" fill-opacity="1" /><path clip-path="url(#clip520)" d="M779.966 1468.75 L809.642 1468.75 L809.642 1472.69 L779.966 1472.69 L779.966 1468.75 Z" fill="#000000" fill-rule="nonzero" fill-opacity="1" /><path clip-path="url(#clip520)" d="M829.734 1454.1 Q826.123 1454.1 824.294 1457.66 Q822.489 1461.2 822.489 1468.33 Q822.489 1475.44 824.294 1479.01 Q826.123 1482.55 829.734 1482.55 Q833.368 1482.55 835.174 1479.01 Q837.003 1475.44 837.003 1468.33 Q837.003 1461.2 835.174 1457.66 Q833.368 1454.1 829.734 1454.1 M829.734 1450.39 Q835.544 1450.39 838.6 1455 Q841.678 1459.58 841.678 1468.33 Q841.678 1477.06 838.6 1481.67 Q835.544 1486.25 829.734 1486.25 Q823.924 1486.25 820.845 1481.67 Q817.79 1477.06 817.79 1468.33 Q817.79 1459.58 820.845 1455 Q823.924 1450.39 829.734 1450.39 Z" fill="#000000" fill-rule="nonzero" fill-opacity="1" /><path clip-path="url(#clip520)" d="M849.896 1479.7 L854.78 1479.7 L854.78 1485.58 L849.896 1485.58 L849.896 1479.7 Z" fill="#000000" fill-rule="nonzero" fill-opacity="1" /><path clip-path="url(#clip520)" d="M865.012 1451.02 L883.368 1451.02 L883.368 1454.96 L869.294 1454.96 L869.294 1463.43 Q870.313 1463.08 871.331 1462.92 Q872.35 1462.73 873.368 1462.73 Q879.155 1462.73 882.535 1465.9 Q885.914 1469.08 885.914 1474.49 Q885.914 1480.07 882.442 1483.17 Q878.97 1486.25 872.651 1486.25 Q870.475 1486.25 868.206 1485.88 Q865.961 1485.51 863.553 1484.77 L863.553 1480.07 Q865.637 1481.2 867.859 1481.76 Q870.081 1482.32 872.558 1482.32 Q876.563 1482.32 878.9 1480.21 Q881.238 1478.1 881.238 1474.49 Q881.238 1470.88 878.9 1468.77 Q876.563 1466.67 872.558 1466.67 Q870.683 1466.67 868.808 1467.08 Q866.956 1467.5 865.012 1468.38 L865.012 1451.02 Z" fill="#000000" fill-rule="nonzero" fill-opacity="1" /><path clip-path="url(#clip520)" d="M1297.44 1454.1 Q1293.83 1454.1 1292.01 1457.66 Q1290.2 1461.2 1290.2 1468.33 Q1290.2 1475.44 1292.01 1479.01 Q1293.83 1482.55 1297.44 1482.55 Q1301.08 1482.55 1302.88 1479.01 Q1304.71 1475.44 1304.71 1468.33 Q1304.71 1461.2 1302.88 1457.66 Q1301.08 1454.1 1297.44 1454.1 M1297.44 1450.39 Q1303.26 1450.39 1306.31 1455 Q1309.39 1459.58 1309.39 1468.33 Q1309.39 1477.06 1306.31 1481.67 Q1303.26 1486.25 1297.44 1486.25 Q1291.63 1486.25 1288.56 1481.67 Q1285.5 1477.06 1285.5 1468.33 Q1285.5 1459.58 1288.56 1455 Q1291.63 1450.39 1297.44 1450.39 Z" fill="#000000" fill-rule="nonzero" fill-opacity="1" /><path clip-path="url(#clip520)" d="M1317.61 1479.7 L1322.49 1479.7 L1322.49 1485.58 L1317.61 1485.58 L1317.61 1479.7 Z" fill="#000000" fill-rule="nonzero" fill-opacity="1" /><path clip-path="url(#clip520)" d="M1342.68 1454.1 Q1339.07 1454.1 1337.24 1457.66 Q1335.43 1461.2 1335.43 1468.33 Q1335.43 1475.44 1337.24 1479.01 Q1339.07 1482.55 1342.68 1482.55 Q1346.31 1482.55 1348.12 1479.01 Q1349.94 1475.44 1349.94 1468.33 Q1349.94 1461.2 1348.12 1457.66 Q1346.31 1454.1 1342.68 1454.1 M1342.68 1450.39 Q1348.49 1450.39 1351.54 1455 Q1354.62 1459.58 1354.62 1468.33 Q1354.62 1477.06 1351.54 1481.67 Q1348.49 1486.25 1342.68 1486.25 Q1336.87 1486.25 1333.79 1481.67 Q1330.73 1477.06 1330.73 1468.33 Q1330.73 1459.58 1333.79 1455 Q1336.87 1450.39 1342.68 1450.39 Z" fill="#000000" fill-rule="nonzero" fill-opacity="1" /><path clip-path="url(#clip520)" d="M1785.06 1454.1 Q1781.45 1454.1 1779.62 1457.66 Q1777.82 1461.2 1777.82 1468.33 Q1777.82 1475.44 1779.62 1479.01 Q1781.45 1482.55 1785.06 1482.55 Q1788.7 1482.55 1790.5 1479.01 Q1792.33 1475.44 1792.33 1468.33 Q1792.33 1461.2 1790.5 1457.66 Q1788.7 1454.1 1785.06 1454.1 M1785.06 1450.39 Q1790.87 1450.39 1793.93 1455 Q1797.01 1459.58 1797.01 1468.33 Q1797.01 1477.06 1793.93 1481.67 Q1790.87 1486.25 1785.06 1486.25 Q1779.25 1486.25 1776.17 1481.67 Q1773.12 1477.06 1773.12 1468.33 Q1773.12 1459.58 1776.17 1455 Q1779.25 1450.39 1785.06 1450.39 Z" fill="#000000" fill-rule="nonzero" fill-opacity="1" /><path clip-path="url(#clip520)" d="M1805.23 1479.7 L1810.11 1479.7 L1810.11 1485.58 L1805.23 1485.58 L1805.23 1479.7 Z" fill="#000000" fill-rule="nonzero" fill-opacity="1" /><path clip-path="url(#clip520)" d="M1820.34 1451.02 L1838.7 1451.02 L1838.7 1454.96 L1824.62 1454.96 L1824.62 1463.43 Q1825.64 1463.08 1826.66 1462.92 Q1827.68 1462.73 1828.7 1462.73 Q1834.48 1462.73 1837.86 1465.9 Q1841.24 1469.08 1841.24 1474.49 Q1841.24 1480.07 1837.77 1483.17 Q1834.3 1486.25 1827.98 1486.25 Q1825.8 1486.25 1823.54 1485.88 Q1821.29 1485.51 1818.88 1484.77 L1818.88 1480.07 Q1820.97 1481.2 1823.19 1481.76 Q1825.41 1482.32 1827.89 1482.32 Q1831.89 1482.32 1834.23 1480.21 Q1836.57 1478.1 1836.57 1474.49 Q1836.57 1470.88 1834.23 1468.77 Q1831.89 1466.67 1827.89 1466.67 Q1826.01 1466.67 1824.14 1467.08 Q1822.29 1467.5 1820.34 1468.38 L1820.34 1451.02 Z" fill="#000000" fill-rule="nonzero" fill-opacity="1" /><path clip-path="url(#clip520)" d="M2261.45 1481.64 L2269.09 1481.64 L2269.09 1455.28 L2260.78 1456.95 L2260.78 1452.69 L2269.05 1451.02 L2273.72 1451.02 L2273.72 1481.64 L2281.36 1481.64 L2281.36 1485.58 L2261.45 1485.58 L2261.45 1481.64 Z" fill="#000000" fill-rule="nonzero" fill-opacity="1" /><path clip-path="url(#clip520)" d="M2290.81 1479.7 L2295.69 1479.7 L2295.69 1485.58 L2290.81 1485.58 L2290.81 1479.7 Z" fill="#000000" fill-rule="nonzero" fill-opacity="1" /><path clip-path="url(#clip520)" d="M2315.88 1454.1 Q2312.26 1454.1 2310.44 1457.66 Q2308.63 1461.2 2308.63 1468.33 Q2308.63 1475.44 2310.44 1479.01 Q2312.26 1482.55 2315.88 1482.55 Q2319.51 1482.55 2321.32 1479.01 Q2323.14 1475.44 2323.14 1468.33 Q2323.14 1461.2 2321.32 1457.66 Q2319.51 1454.1 2315.88 1454.1 M2315.88 1450.39 Q2321.69 1450.39 2324.74 1455 Q2327.82 1459.58 2327.82 1468.33 Q2327.82 1477.06 2324.74 1481.67 Q2321.69 1486.25 2315.88 1486.25 Q2310.07 1486.25 2306.99 1481.67 Q2303.93 1477.06 2303.93 1468.33 Q2303.93 1459.58 2306.99 1455 Q2310.07 1450.39 2315.88 1450.39 Z" fill="#000000" fill-rule="nonzero" fill-opacity="1" /><path clip-path="url(#clip520)" d="M1262.64 1545.76 Q1264.71 1546.46 1266.65 1548.76 Q1268.63 1551.05 1270.6 1555.06 L1277.12 1568.04 L1270.22 1568.04 L1264.14 1555.85 Q1261.78 1551.08 1259.55 1549.52 Q1257.36 1547.96 1253.54 1547.96 L1246.54 1547.96 L1246.54 1568.04 L1240.11 1568.04 L1240.11 1520.52 L1254.62 1520.52 Q1262.77 1520.52 1266.78 1523.93 Q1270.79 1527.34 1270.79 1534.21 Q1270.79 1538.7 1268.69 1541.66 Q1266.62 1544.62 1262.64 1545.76 M1246.54 1525.81 L1246.54 1542.68 L1254.62 1542.68 Q1259.27 1542.68 1261.62 1540.54 Q1264.01 1538.38 1264.01 1534.21 Q1264.01 1530.04 1261.62 1527.94 Q1259.27 1525.81 1254.62 1525.81 L1246.54 1525.81 Z" fill="#000000" fill-rule="nonzero" fill-opacity="1" /><path clip-path="url(#clip520)" d="M1312.71 1548.76 L1312.71 1551.62 L1285.78 1551.62 Q1286.16 1557.67 1289.41 1560.85 Q1292.69 1564 1298.51 1564 Q1301.89 1564 1305.04 1563.17 Q1308.22 1562.35 1311.34 1560.69 L1311.34 1566.23 Q1308.19 1567.57 1304.88 1568.27 Q1301.57 1568.97 1298.16 1568.97 Q1289.63 1568.97 1284.64 1564 Q1279.67 1559.04 1279.67 1550.57 Q1279.67 1541.82 1284.38 1536.69 Q1289.12 1531.54 1297.14 1531.54 Q1304.34 1531.54 1308.51 1536.18 Q1312.71 1540.8 1312.71 1548.76 M1306.85 1547.04 Q1306.79 1542.23 1304.15 1539.37 Q1301.54 1536.5 1297.21 1536.5 Q1292.31 1536.5 1289.35 1539.27 Q1286.42 1542.04 1285.97 1547.07 L1306.85 1547.04 Z" fill="#000000" fill-rule="nonzero" fill-opacity="1" /><path clip-path="url(#clip520)" d="M1336.39 1518.58 Q1332.12 1525.9 1330.06 1533.06 Q1327.99 1540.23 1327.99 1547.58 Q1327.99 1554.93 1330.06 1562.16 Q1332.16 1569.35 1336.39 1576.64 L1331.3 1576.64 Q1326.52 1569.16 1324.13 1561.93 Q1321.78 1554.71 1321.78 1547.58 Q1321.78 1540.48 1324.13 1533.29 Q1326.49 1526.09 1331.3 1518.58 L1336.39 1518.58 Z" fill="#000000" fill-rule="nonzero" fill-opacity="1" /><path clip-path="url(#clip520)" d="M1377.38 1532.4 L1364.49 1549.74 L1378.05 1568.04 L1371.15 1568.04 L1360.77 1554.04 L1350.39 1568.04 L1343.49 1568.04 L1357.33 1549.39 L1344.66 1532.4 L1351.57 1532.4 L1361.02 1545.1 L1370.48 1532.4 L1377.38 1532.4 Z" fill="#000000" fill-rule="nonzero" fill-opacity="1" /><path clip-path="url(#clip520)" d="M1385.4 1518.58 L1390.5 1518.58 Q1395.27 1526.09 1397.63 1533.29 Q1400.01 1540.48 1400.01 1547.58 Q1400.01 1554.71 1397.63 1561.93 Q1395.27 1569.16 1390.5 1576.64 L1385.4 1576.64 Q1389.64 1569.35 1391.71 1562.16 Q1393.81 1554.93 1393.81 1547.58 Q1393.81 1540.23 1391.71 1533.06 Q1389.64 1525.9 1385.4 1518.58 Z" fill="#000000" fill-rule="nonzero" fill-opacity="1" /><polyline clip-path="url(#clip522)" style="stroke:#000000; stroke-linecap:round; stroke-linejoin:round; stroke-width:2; stroke-opacity:0.1; fill:none" points="287.366,1297.29 2352.76,1297.29 "/>
<polyline clip-path="url(#clip522)" style="stroke:#000000; stroke-linecap:round; stroke-linejoin:round; stroke-width:2; stroke-opacity:0.1; fill:none" points="287.366,1109.93 2352.76,1109.93 "/>
<polyline clip-path="url(#clip522)" style="stroke:#000000; stroke-linecap:round; stroke-linejoin:round; stroke-width:2; stroke-opacity:0.1; fill:none" points="287.366,922.57 2352.76,922.57 "/>
<polyline clip-path="url(#clip522)" style="stroke:#000000; stroke-linecap:round; stroke-linejoin:round; stroke-width:2; stroke-opacity:0.1; fill:none" points="287.366,735.212 2352.76,735.212 "/>
<polyline clip-path="url(#clip522)" style="stroke:#000000; stroke-linecap:round; stroke-linejoin:round; stroke-width:2; stroke-opacity:0.1; fill:none" points="287.366,547.854 2352.76,547.854 "/>
<polyline clip-path="url(#clip522)" style="stroke:#000000; stroke-linecap:round; stroke-linejoin:round; stroke-width:2; stroke-opacity:0.1; fill:none" points="287.366,360.496 2352.76,360.496 "/>
<polyline clip-path="url(#clip522)" style="stroke:#000000; stroke-linecap:round; stroke-linejoin:round; stroke-width:2; stroke-opacity:0.1; fill:none" points="287.366,173.139 2352.76,173.139 "/>
<polyline clip-path="url(#clip520)" style="stroke:#000000; stroke-linecap:round; stroke-linejoin:round; stroke-width:4; stroke-opacity:1; fill:none" points="287.366,1423.18 287.366,47.2441 "/>
<polyline clip-path="url(#clip520)" style="stroke:#000000; stroke-linecap:round; stroke-linejoin:round; stroke-width:4; stroke-opacity:1; fill:none" points="287.366,1297.29 306.264,1297.29 "/>
<polyline clip-path="url(#clip520)" style="stroke:#000000; stroke-linecap:round; stroke-linejoin:round; stroke-width:4; stroke-opacity:1; fill:none" points="287.366,1109.93 306.264,1109.93 "/>
<polyline clip-path="url(#clip520)" style="stroke:#000000; stroke-linecap:round; stroke-linejoin:round; stroke-width:4; stroke-opacity:1; fill:none" points="287.366,922.57 306.264,922.57 "/>
<polyline clip-path="url(#clip520)" style="stroke:#000000; stroke-linecap:round; stroke-linejoin:round; stroke-width:4; stroke-opacity:1; fill:none" points="287.366,735.212 306.264,735.212 "/>
<polyline clip-path="url(#clip520)" style="stroke:#000000; stroke-linecap:round; stroke-linejoin:round; stroke-width:4; stroke-opacity:1; fill:none" points="287.366,547.854 306.264,547.854 "/>
<polyline clip-path="url(#clip520)" style="stroke:#000000; stroke-linecap:round; stroke-linejoin:round; stroke-width:4; stroke-opacity:1; fill:none" points="287.366,360.496 306.264,360.496 "/>
<polyline clip-path="url(#clip520)" style="stroke:#000000; stroke-linecap:round; stroke-linejoin:round; stroke-width:4; stroke-opacity:1; fill:none" points="287.366,173.139 306.264,173.139 "/>
<path clip-path="url(#clip520)" d="M115.256 1297.74 L144.931 1297.74 L144.931 1301.67 L115.256 1301.67 L115.256 1297.74 Z" fill="#000000" fill-rule="nonzero" fill-opacity="1" /><path clip-path="url(#clip520)" d="M165.024 1283.08 Q161.413 1283.08 159.584 1286.65 Q157.778 1290.19 157.778 1297.32 Q157.778 1304.43 159.584 1307.99 Q161.413 1311.53 165.024 1311.53 Q168.658 1311.53 170.464 1307.99 Q172.292 1304.43 172.292 1297.32 Q172.292 1290.19 170.464 1286.65 Q168.658 1283.08 165.024 1283.08 M165.024 1279.38 Q170.834 1279.38 173.889 1283.99 Q176.968 1288.57 176.968 1297.32 Q176.968 1306.05 173.889 1310.65 Q170.834 1315.24 165.024 1315.24 Q159.214 1315.24 156.135 1310.65 Q153.079 1306.05 153.079 1297.32 Q153.079 1288.57 156.135 1283.99 Q159.214 1279.38 165.024 1279.38 Z" fill="#000000" fill-rule="nonzero" fill-opacity="1" /><path clip-path="url(#clip520)" d="M185.186 1308.69 L190.07 1308.69 L190.07 1314.57 L185.186 1314.57 L185.186 1308.69 Z" fill="#000000" fill-rule="nonzero" fill-opacity="1" /><path clip-path="url(#clip520)" d="M199.075 1280.01 L221.297 1280.01 L221.297 1282 L208.75 1314.57 L203.866 1314.57 L215.672 1283.94 L199.075 1283.94 L199.075 1280.01 Z" fill="#000000" fill-rule="nonzero" fill-opacity="1" /><path clip-path="url(#clip520)" d="M230.463 1280.01 L248.82 1280.01 L248.82 1283.94 L234.746 1283.94 L234.746 1292.41 Q235.764 1292.07 236.783 1291.9 Q237.801 1291.72 238.82 1291.72 Q244.607 1291.72 247.986 1294.89 Q251.366 1298.06 251.366 1303.48 Q251.366 1309.06 247.894 1312.16 Q244.421 1315.24 238.102 1315.24 Q235.926 1315.24 233.658 1314.87 Q231.412 1314.5 229.005 1313.76 L229.005 1309.06 Q231.088 1310.19 233.31 1310.75 Q235.533 1311.3 238.009 1311.3 Q242.014 1311.3 244.352 1309.19 Q246.69 1307.09 246.69 1303.48 Q246.69 1299.87 244.352 1297.76 Q242.014 1295.65 238.009 1295.65 Q236.135 1295.65 234.26 1296.07 Q232.408 1296.49 230.463 1297.37 L230.463 1280.01 Z" fill="#000000" fill-rule="nonzero" fill-opacity="1" /><path clip-path="url(#clip520)" d="M114.26 1110.38 L143.936 1110.38 L143.936 1114.31 L114.26 1114.31 L114.26 1110.38 Z" fill="#000000" fill-rule="nonzero" fill-opacity="1" /><path clip-path="url(#clip520)" d="M164.028 1095.73 Q160.417 1095.73 158.589 1099.29 Q156.783 1102.83 156.783 1109.96 Q156.783 1117.07 158.589 1120.63 Q160.417 1124.18 164.028 1124.18 Q167.663 1124.18 169.468 1120.63 Q171.297 1117.07 171.297 1109.96 Q171.297 1102.83 169.468 1099.29 Q167.663 1095.73 164.028 1095.73 M164.028 1092.02 Q169.839 1092.02 172.894 1096.63 Q175.973 1101.21 175.973 1109.96 Q175.973 1118.69 172.894 1123.3 Q169.839 1127.88 164.028 1127.88 Q158.218 1127.88 155.14 1123.3 Q152.084 1118.69 152.084 1109.96 Q152.084 1101.21 155.14 1096.63 Q158.218 1092.02 164.028 1092.02 Z" fill="#000000" fill-rule="nonzero" fill-opacity="1" /><path clip-path="url(#clip520)" d="M184.19 1121.33 L189.075 1121.33 L189.075 1127.21 L184.19 1127.21 L184.19 1121.33 Z" fill="#000000" fill-rule="nonzero" fill-opacity="1" /><path clip-path="url(#clip520)" d="M199.306 1092.65 L217.662 1092.65 L217.662 1096.58 L203.588 1096.58 L203.588 1105.05 Q204.607 1104.71 205.625 1104.55 Q206.644 1104.36 207.662 1104.36 Q213.449 1104.36 216.829 1107.53 Q220.209 1110.7 220.209 1116.12 Q220.209 1121.7 216.736 1124.8 Q213.264 1127.88 206.945 1127.88 Q204.769 1127.88 202.5 1127.51 Q200.255 1127.14 197.848 1126.4 L197.848 1121.7 Q199.931 1122.83 202.153 1123.39 Q204.375 1123.94 206.852 1123.94 Q210.857 1123.94 213.195 1121.84 Q215.533 1119.73 215.533 1116.12 Q215.533 1112.51 213.195 1110.4 Q210.857 1108.3 206.852 1108.3 Q204.977 1108.3 203.102 1108.71 Q201.25 1109.13 199.306 1110.01 L199.306 1092.65 Z" fill="#000000" fill-rule="nonzero" fill-opacity="1" /><path clip-path="url(#clip520)" d="M239.422 1095.73 Q235.81 1095.73 233.982 1099.29 Q232.176 1102.83 232.176 1109.96 Q232.176 1117.07 233.982 1120.63 Q235.81 1124.18 239.422 1124.18 Q243.056 1124.18 244.861 1120.63 Q246.69 1117.07 246.69 1109.96 Q246.69 1102.83 244.861 1099.29 Q243.056 1095.73 239.422 1095.73 M239.422 1092.02 Q245.232 1092.02 248.287 1096.63 Q251.366 1101.21 251.366 1109.96 Q251.366 1118.69 248.287 1123.3 Q245.232 1127.88 239.422 1127.88 Q233.611 1127.88 230.533 1123.3 Q227.477 1118.69 227.477 1109.96 Q227.477 1101.21 230.533 1096.63 Q233.611 1092.02 239.422 1092.02 Z" fill="#000000" fill-rule="nonzero" fill-opacity="1" /><path clip-path="url(#clip520)" d="M115.256 923.021 L144.931 923.021 L144.931 926.956 L115.256 926.956 L115.256 923.021 Z" fill="#000000" fill-rule="nonzero" fill-opacity="1" /><path clip-path="url(#clip520)" d="M165.024 908.368 Q161.413 908.368 159.584 911.933 Q157.778 915.475 157.778 922.604 Q157.778 929.711 159.584 933.276 Q161.413 936.817 165.024 936.817 Q168.658 936.817 170.464 933.276 Q172.292 929.711 172.292 922.604 Q172.292 915.475 170.464 911.933 Q168.658 908.368 165.024 908.368 M165.024 904.665 Q170.834 904.665 173.889 909.271 Q176.968 913.854 176.968 922.604 Q176.968 931.331 173.889 935.938 Q170.834 940.521 165.024 940.521 Q159.214 940.521 156.135 935.938 Q153.079 931.331 153.079 922.604 Q153.079 913.854 156.135 909.271 Q159.214 904.665 165.024 904.665 Z" fill="#000000" fill-rule="nonzero" fill-opacity="1" /><path clip-path="url(#clip520)" d="M185.186 933.97 L190.07 933.97 L190.07 939.85 L185.186 939.85 L185.186 933.97 Z" fill="#000000" fill-rule="nonzero" fill-opacity="1" /><path clip-path="url(#clip520)" d="M204.283 935.915 L220.602 935.915 L220.602 939.85 L198.658 939.85 L198.658 935.915 Q201.32 933.16 205.903 928.53 Q210.51 923.878 211.69 922.535 Q213.936 920.012 214.815 918.276 Q215.718 916.517 215.718 914.827 Q215.718 912.072 213.774 910.336 Q211.852 908.6 208.75 908.6 Q206.551 908.6 204.098 909.364 Q201.667 910.128 198.889 911.679 L198.889 906.956 Q201.713 905.822 204.167 905.243 Q206.621 904.665 208.658 904.665 Q214.028 904.665 217.223 907.35 Q220.417 910.035 220.417 914.526 Q220.417 916.655 219.607 918.577 Q218.82 920.475 216.713 923.067 Q216.135 923.739 213.033 926.956 Q209.931 930.151 204.283 935.915 Z" fill="#000000" fill-rule="nonzero" fill-opacity="1" /><path clip-path="url(#clip520)" d="M230.463 905.29 L248.82 905.29 L248.82 909.225 L234.746 909.225 L234.746 917.697 Q235.764 917.35 236.783 917.188 Q237.801 917.003 238.82 917.003 Q244.607 917.003 247.986 920.174 Q251.366 923.345 251.366 928.762 Q251.366 934.34 247.894 937.442 Q244.421 940.521 238.102 940.521 Q235.926 940.521 233.658 940.151 Q231.412 939.78 229.005 939.04 L229.005 934.34 Q231.088 935.475 233.31 936.03 Q235.533 936.586 238.009 936.586 Q242.014 936.586 244.352 934.479 Q246.69 932.373 246.69 928.762 Q246.69 925.151 244.352 923.044 Q242.014 920.938 238.009 920.938 Q236.135 920.938 234.26 921.354 Q232.408 921.771 230.463 922.651 L230.463 905.29 Z" fill="#000000" fill-rule="nonzero" fill-opacity="1" /><path clip-path="url(#clip520)" d="M164.028 721.011 Q160.417 721.011 158.589 724.575 Q156.783 728.117 156.783 735.247 Q156.783 742.353 158.589 745.918 Q160.417 749.46 164.028 749.46 Q167.663 749.46 169.468 745.918 Q171.297 742.353 171.297 735.247 Q171.297 728.117 169.468 724.575 Q167.663 721.011 164.028 721.011 M164.028 717.307 Q169.839 717.307 172.894 721.913 Q175.973 726.497 175.973 735.247 Q175.973 743.973 172.894 748.58 Q169.839 753.163 164.028 753.163 Q158.218 753.163 155.14 748.58 Q152.084 743.973 152.084 735.247 Q152.084 726.497 155.14 721.913 Q158.218 717.307 164.028 717.307 Z" fill="#000000" fill-rule="nonzero" fill-opacity="1" /><path clip-path="url(#clip520)" d="M184.19 746.612 L189.075 746.612 L189.075 752.492 L184.19 752.492 L184.19 746.612 Z" fill="#000000" fill-rule="nonzero" fill-opacity="1" /><path clip-path="url(#clip520)" d="M209.26 721.011 Q205.649 721.011 203.82 724.575 Q202.014 728.117 202.014 735.247 Q202.014 742.353 203.82 745.918 Q205.649 749.46 209.26 749.46 Q212.894 749.46 214.699 745.918 Q216.528 742.353 216.528 735.247 Q216.528 728.117 214.699 724.575 Q212.894 721.011 209.26 721.011 M209.26 717.307 Q215.07 717.307 218.125 721.913 Q221.204 726.497 221.204 735.247 Q221.204 743.973 218.125 748.58 Q215.07 753.163 209.26 753.163 Q203.449 753.163 200.371 748.58 Q197.315 743.973 197.315 735.247 Q197.315 726.497 200.371 721.913 Q203.449 717.307 209.26 717.307 Z" fill="#000000" fill-rule="nonzero" fill-opacity="1" /><path clip-path="url(#clip520)" d="M239.422 721.011 Q235.81 721.011 233.982 724.575 Q232.176 728.117 232.176 735.247 Q232.176 742.353 233.982 745.918 Q235.81 749.46 239.422 749.46 Q243.056 749.46 244.861 745.918 Q246.69 742.353 246.69 735.247 Q246.69 728.117 244.861 724.575 Q243.056 721.011 239.422 721.011 M239.422 717.307 Q245.232 717.307 248.287 721.913 Q251.366 726.497 251.366 735.247 Q251.366 743.973 248.287 748.58 Q245.232 753.163 239.422 753.163 Q233.611 753.163 230.533 748.58 Q227.477 743.973 227.477 735.247 Q227.477 726.497 230.533 721.913 Q233.611 717.307 239.422 717.307 Z" fill="#000000" fill-rule="nonzero" fill-opacity="1" /><path clip-path="url(#clip520)" d="M165.024 533.653 Q161.413 533.653 159.584 537.218 Q157.778 540.759 157.778 547.889 Q157.778 554.995 159.584 558.56 Q161.413 562.102 165.024 562.102 Q168.658 562.102 170.464 558.56 Q172.292 554.995 172.292 547.889 Q172.292 540.759 170.464 537.218 Q168.658 533.653 165.024 533.653 M165.024 529.949 Q170.834 529.949 173.889 534.556 Q176.968 539.139 176.968 547.889 Q176.968 556.616 173.889 561.222 Q170.834 565.806 165.024 565.806 Q159.214 565.806 156.135 561.222 Q153.079 556.616 153.079 547.889 Q153.079 539.139 156.135 534.556 Q159.214 529.949 165.024 529.949 Z" fill="#000000" fill-rule="nonzero" fill-opacity="1" /><path clip-path="url(#clip520)" d="M185.186 559.255 L190.07 559.255 L190.07 565.134 L185.186 565.134 L185.186 559.255 Z" fill="#000000" fill-rule="nonzero" fill-opacity="1" /><path clip-path="url(#clip520)" d="M204.283 561.199 L220.602 561.199 L220.602 565.134 L198.658 565.134 L198.658 561.199 Q201.32 558.444 205.903 553.815 Q210.51 549.162 211.69 547.819 Q213.936 545.296 214.815 543.56 Q215.718 541.801 215.718 540.111 Q215.718 537.357 213.774 535.62 Q211.852 533.884 208.75 533.884 Q206.551 533.884 204.098 534.648 Q201.667 535.412 198.889 536.963 L198.889 532.241 Q201.713 531.107 204.167 530.528 Q206.621 529.949 208.658 529.949 Q214.028 529.949 217.223 532.634 Q220.417 535.32 220.417 539.81 Q220.417 541.94 219.607 543.861 Q218.82 545.759 216.713 548.352 Q216.135 549.023 213.033 552.241 Q209.931 555.435 204.283 561.199 Z" fill="#000000" fill-rule="nonzero" fill-opacity="1" /><path clip-path="url(#clip520)" d="M230.463 530.574 L248.82 530.574 L248.82 534.509 L234.746 534.509 L234.746 542.982 Q235.764 542.634 236.783 542.472 Q237.801 542.287 238.82 542.287 Q244.607 542.287 247.986 545.458 Q251.366 548.63 251.366 554.046 Q251.366 559.625 247.894 562.727 Q244.421 565.806 238.102 565.806 Q235.926 565.806 233.658 565.435 Q231.412 565.065 229.005 564.324 L229.005 559.625 Q231.088 560.759 233.31 561.315 Q235.533 561.87 238.009 561.87 Q242.014 561.87 244.352 559.764 Q246.69 557.657 246.69 554.046 Q246.69 550.435 244.352 548.329 Q242.014 546.222 238.009 546.222 Q236.135 546.222 234.26 546.639 Q232.408 547.056 230.463 547.935 L230.463 530.574 Z" fill="#000000" fill-rule="nonzero" fill-opacity="1" /><path clip-path="url(#clip520)" d="M164.028 346.295 Q160.417 346.295 158.589 349.86 Q156.783 353.402 156.783 360.531 Q156.783 367.638 158.589 371.202 Q160.417 374.744 164.028 374.744 Q167.663 374.744 169.468 371.202 Q171.297 367.638 171.297 360.531 Q171.297 353.402 169.468 349.86 Q167.663 346.295 164.028 346.295 M164.028 342.591 Q169.839 342.591 172.894 347.198 Q175.973 351.781 175.973 360.531 Q175.973 369.258 172.894 373.864 Q169.839 378.448 164.028 378.448 Q158.218 378.448 155.14 373.864 Q152.084 369.258 152.084 360.531 Q152.084 351.781 155.14 347.198 Q158.218 342.591 164.028 342.591 Z" fill="#000000" fill-rule="nonzero" fill-opacity="1" /><path clip-path="url(#clip520)" d="M184.19 371.897 L189.075 371.897 L189.075 377.776 L184.19 377.776 L184.19 371.897 Z" fill="#000000" fill-rule="nonzero" fill-opacity="1" /><path clip-path="url(#clip520)" d="M199.306 343.216 L217.662 343.216 L217.662 347.152 L203.588 347.152 L203.588 355.624 Q204.607 355.277 205.625 355.115 Q206.644 354.929 207.662 354.929 Q213.449 354.929 216.829 358.101 Q220.209 361.272 220.209 366.689 Q220.209 372.267 216.736 375.369 Q213.264 378.448 206.945 378.448 Q204.769 378.448 202.5 378.077 Q200.255 377.707 197.848 376.966 L197.848 372.267 Q199.931 373.401 202.153 373.957 Q204.375 374.513 206.852 374.513 Q210.857 374.513 213.195 372.406 Q215.533 370.3 215.533 366.689 Q215.533 363.077 213.195 360.971 Q210.857 358.865 206.852 358.865 Q204.977 358.865 203.102 359.281 Q201.25 359.698 199.306 360.577 L199.306 343.216 Z" fill="#000000" fill-rule="nonzero" fill-opacity="1" /><path clip-path="url(#clip520)" d="M239.422 346.295 Q235.81 346.295 233.982 349.86 Q232.176 353.402 232.176 360.531 Q232.176 367.638 233.982 371.202 Q235.81 374.744 239.422 374.744 Q243.056 374.744 244.861 371.202 Q246.69 367.638 246.69 360.531 Q246.69 353.402 244.861 349.86 Q243.056 346.295 239.422 346.295 M239.422 342.591 Q245.232 342.591 248.287 347.198 Q251.366 351.781 251.366 360.531 Q251.366 369.258 248.287 373.864 Q245.232 378.448 239.422 378.448 Q233.611 378.448 230.533 373.864 Q227.477 369.258 227.477 360.531 Q227.477 351.781 230.533 347.198 Q233.611 342.591 239.422 342.591 Z" fill="#000000" fill-rule="nonzero" fill-opacity="1" /><path clip-path="url(#clip520)" d="M165.024 158.937 Q161.413 158.937 159.584 162.502 Q157.778 166.044 157.778 173.173 Q157.778 180.28 159.584 183.845 Q161.413 187.386 165.024 187.386 Q168.658 187.386 170.464 183.845 Q172.292 180.28 172.292 173.173 Q172.292 166.044 170.464 162.502 Q168.658 158.937 165.024 158.937 M165.024 155.234 Q170.834 155.234 173.889 159.84 Q176.968 164.423 176.968 173.173 Q176.968 181.9 173.889 186.507 Q170.834 191.09 165.024 191.09 Q159.214 191.09 156.135 186.507 Q153.079 181.9 153.079 173.173 Q153.079 164.423 156.135 159.84 Q159.214 155.234 165.024 155.234 Z" fill="#000000" fill-rule="nonzero" fill-opacity="1" /><path clip-path="url(#clip520)" d="M185.186 184.539 L190.07 184.539 L190.07 190.419 L185.186 190.419 L185.186 184.539 Z" fill="#000000" fill-rule="nonzero" fill-opacity="1" /><path clip-path="url(#clip520)" d="M199.075 155.859 L221.297 155.859 L221.297 157.849 L208.75 190.419 L203.866 190.419 L215.672 159.794 L199.075 159.794 L199.075 155.859 Z" fill="#000000" fill-rule="nonzero" fill-opacity="1" /><path clip-path="url(#clip520)" d="M230.463 155.859 L248.82 155.859 L248.82 159.794 L234.746 159.794 L234.746 168.266 Q235.764 167.919 236.783 167.757 Q237.801 167.572 238.82 167.572 Q244.607 167.572 247.986 170.743 Q251.366 173.914 251.366 179.331 Q251.366 184.909 247.894 188.011 Q244.421 191.09 238.102 191.09 Q235.926 191.09 233.658 190.72 Q231.412 190.349 229.005 189.609 L229.005 184.909 Q231.088 186.044 233.31 186.599 Q235.533 187.155 238.009 187.155 Q242.014 187.155 244.352 185.048 Q246.69 182.942 246.69 179.331 Q246.69 175.72 244.352 173.613 Q242.014 171.507 238.009 171.507 Q236.135 171.507 234.26 171.923 Q232.408 172.34 230.463 173.22 L230.463 155.859 Z" fill="#000000" fill-rule="nonzero" fill-opacity="1" /><path clip-path="url(#clip520)" d="M16.4842 815.293 L16.4842 808.863 L64.0042 808.863 L64.0042 815.293 L16.4842 815.293 Z" fill="#000000" fill-rule="nonzero" fill-opacity="1" /><path clip-path="url(#clip520)" d="M35.1993 768.568 Q31.2526 766.372 29.3747 763.317 Q27.4968 760.261 27.4968 756.123 Q27.4968 750.553 31.4117 747.53 Q35.2948 744.506 42.4881 744.506 L64.0042 744.506 L64.0042 750.394 L42.679 750.394 Q37.5546 750.394 35.072 752.208 Q32.5894 754.023 32.5894 757.747 Q32.5894 762.298 35.6131 764.94 Q38.6368 767.582 43.8567 767.582 L64.0042 767.582 L64.0042 773.47 L42.679 773.47 Q37.5228 773.47 35.072 775.284 Q32.5894 777.098 32.5894 780.886 Q32.5894 785.374 35.6449 788.016 Q38.6686 790.657 43.8567 790.657 L64.0042 790.657 L64.0042 796.546 L28.3562 796.546 L28.3562 790.657 L33.8944 790.657 Q30.616 788.652 29.0564 785.851 Q27.4968 783.05 27.4968 779.199 Q27.4968 775.316 29.4702 772.61 Q31.4436 769.873 35.1993 768.568 Z" fill="#000000" fill-rule="nonzero" fill-opacity="1" /><path clip-path="url(#clip520)" d="M14.5426 718.757 Q21.8632 723.022 29.0246 725.09 Q36.186 727.159 43.5384 727.159 Q50.8908 727.159 58.1159 725.09 Q65.3091 722.99 72.5979 718.757 L72.5979 723.849 Q65.1182 728.623 57.8931 731.011 Q50.668 733.366 43.5384 733.366 Q36.4406 733.366 29.2474 731.011 Q22.0542 728.655 14.5426 723.849 L14.5426 718.757 Z" fill="#000000" fill-rule="nonzero" fill-opacity="1" /><path clip-path="url(#clip520)" d="M28.3562 677.761 L45.7028 690.652 L64.0042 677.093 L64.0042 684 L49.9996 694.376 L64.0042 704.752 L64.0042 711.659 L45.3526 697.813 L28.3562 710.481 L28.3562 703.574 L41.0558 694.121 L28.3562 684.668 L28.3562 677.761 Z" fill="#000000" fill-rule="nonzero" fill-opacity="1" /><path clip-path="url(#clip520)" d="M14.5426 669.741 L14.5426 664.648 Q22.0542 659.874 29.2474 657.519 Q36.4406 655.131 43.5384 655.131 Q50.668 655.131 57.8931 657.519 Q65.1182 659.874 72.5979 664.648 L72.5979 669.741 Q65.3091 665.507 58.1159 663.439 Q50.8908 661.338 43.5384 661.338 Q36.186 661.338 29.0246 663.439 Q21.8632 665.507 14.5426 669.741 Z" fill="#000000" fill-rule="nonzero" fill-opacity="1" /><circle clip-path="url(#clip522)" cx="2294.3" cy="735.212" r="14.4" fill="#009af9" fill-rule="evenodd" fill-opacity="1" stroke="#000000" stroke-opacity="1" stroke-width="3.2"/>
<circle clip-path="url(#clip522)" cx="1807.18" cy="86.1857" r="14.4" fill="#009af9" fill-rule="evenodd" fill-opacity="1" stroke="#000000" stroke-opacity="1" stroke-width="3.2"/>
<circle clip-path="url(#clip522)" cx="1807.18" cy="1384.24" r="14.4" fill="#009af9" fill-rule="evenodd" fill-opacity="1" stroke="#000000" stroke-opacity="1" stroke-width="3.2"/>
<circle clip-path="url(#clip522)" cx="832.94" cy="86.1861" r="14.4" fill="#009af9" fill-rule="evenodd" fill-opacity="1" stroke="#000000" stroke-opacity="1" stroke-width="3.2"/>
<circle clip-path="url(#clip522)" cx="832.94" cy="1384.24" r="14.4" fill="#009af9" fill-rule="evenodd" fill-opacity="1" stroke="#000000" stroke-opacity="1" stroke-width="3.2"/>
<circle clip-path="url(#clip522)" cx="345.82" cy="735.212" r="14.4" fill="#009af9" fill-rule="evenodd" fill-opacity="1" stroke="#000000" stroke-opacity="1" stroke-width="3.2"/>
<circle clip-path="url(#clip522)" cx="2160.84" cy="671.699" r="14.4" fill="#009af9" fill-rule="evenodd" fill-opacity="1" stroke="#000000" stroke-opacity="1" stroke-width="3.2"/>
<circle clip-path="url(#clip522)" cx="2160.84" cy="798.725" r="14.4" fill="#009af9" fill-rule="evenodd" fill-opacity="1" stroke="#000000" stroke-opacity="1" stroke-width="3.2"/>
<circle clip-path="url(#clip522)" cx="1811.95" cy="206.854" r="14.4" fill="#009af9" fill-rule="evenodd" fill-opacity="1" stroke="#000000" stroke-opacity="1" stroke-width="3.2"/>
<circle clip-path="url(#clip522)" cx="1811.95" cy="1263.57" r="14.4" fill="#009af9" fill-rule="evenodd" fill-opacity="1" stroke="#000000" stroke-opacity="1" stroke-width="3.2"/>
<circle clip-path="url(#clip522)" cx="1668.94" cy="143.342" r="14.4" fill="#009af9" fill-rule="evenodd" fill-opacity="1" stroke="#000000" stroke-opacity="1" stroke-width="3.2"/>
<circle clip-path="url(#clip522)" cx="1668.94" cy="1327.08" r="14.4" fill="#009af9" fill-rule="evenodd" fill-opacity="1" stroke="#000000" stroke-opacity="1" stroke-width="3.2"/>
<circle clip-path="url(#clip522)" cx="971.175" cy="143.343" r="14.4" fill="#009af9" fill-rule="evenodd" fill-opacity="1" stroke="#000000" stroke-opacity="1" stroke-width="3.2"/>
<circle clip-path="url(#clip522)" cx="971.175" cy="1327.08" r="14.4" fill="#009af9" fill-rule="evenodd" fill-opacity="1" stroke="#000000" stroke-opacity="1" stroke-width="3.2"/>
<circle clip-path="url(#clip522)" cx="828.17" cy="206.856" r="14.4" fill="#009af9" fill-rule="evenodd" fill-opacity="1" stroke="#000000" stroke-opacity="1" stroke-width="3.2"/>
<circle clip-path="url(#clip522)" cx="828.17" cy="1263.57" r="14.4" fill="#009af9" fill-rule="evenodd" fill-opacity="1" stroke="#000000" stroke-opacity="1" stroke-width="3.2"/>
<circle clip-path="url(#clip522)" cx="479.287" cy="671.7" r="14.4" fill="#009af9" fill-rule="evenodd" fill-opacity="1" stroke="#000000" stroke-opacity="1" stroke-width="3.2"/>
<circle clip-path="url(#clip522)" cx="479.287" cy="798.724" r="14.4" fill="#009af9" fill-rule="evenodd" fill-opacity="1" stroke="#000000" stroke-opacity="1" stroke-width="3.2"/>
<circle clip-path="url(#clip522)" cx="2110.32" cy="735.212" r="14.4" fill="#009af9" fill-rule="evenodd" fill-opacity="1" stroke="#000000" stroke-opacity="1" stroke-width="3.2"/>
<circle clip-path="url(#clip522)" cx="1715.16" cy="208.753" r="14.4" fill="#009af9" fill-rule="evenodd" fill-opacity="1" stroke="#000000" stroke-opacity="1" stroke-width="3.2"/>
<circle clip-path="url(#clip522)" cx="1715.16" cy="1261.67" r="14.4" fill="#009af9" fill-rule="evenodd" fill-opacity="1" stroke="#000000" stroke-opacity="1" stroke-width="3.2"/>
<circle clip-path="url(#clip522)" cx="924.937" cy="208.795" r="14.4" fill="#009af9" fill-rule="evenodd" fill-opacity="1" stroke="#000000" stroke-opacity="1" stroke-width="3.2"/>
<circle clip-path="url(#clip522)" cx="924.937" cy="1261.63" r="14.4" fill="#009af9" fill-rule="evenodd" fill-opacity="1" stroke="#000000" stroke-opacity="1" stroke-width="3.2"/>
<circle clip-path="url(#clip522)" cx="529.869" cy="735.212" r="14.4" fill="#009af9" fill-rule="evenodd" fill-opacity="1" stroke="#000000" stroke-opacity="1" stroke-width="3.2"/>
<circle clip-path="url(#clip522)" cx="980.347" cy="206.446" r="14.4" fill="#009af9" fill-rule="evenodd" fill-opacity="1" stroke="#000000" stroke-opacity="1" stroke-width="3.2"/>
<circle clip-path="url(#clip522)" cx="980.347" cy="1263.98" r="14.4" fill="#009af9" fill-rule="evenodd" fill-opacity="1" stroke="#000000" stroke-opacity="1" stroke-width="3.2"/>
<circle clip-path="url(#clip522)" cx="1745.5" cy="244.524" r="14.4" fill="#009af9" fill-rule="evenodd" fill-opacity="1" stroke="#000000" stroke-opacity="1" stroke-width="3.2"/>
<circle clip-path="url(#clip522)" cx="1745.5" cy="1225.9" r="14.4" fill="#009af9" fill-rule="evenodd" fill-opacity="1" stroke="#000000" stroke-opacity="1" stroke-width="3.2"/>
<circle clip-path="url(#clip522)" cx="554.921" cy="697.149" r="14.4" fill="#009af9" fill-rule="evenodd" fill-opacity="1" stroke="#000000" stroke-opacity="1" stroke-width="3.2"/>
<circle clip-path="url(#clip522)" cx="554.921" cy="773.274" r="14.4" fill="#009af9" fill-rule="evenodd" fill-opacity="1" stroke="#000000" stroke-opacity="1" stroke-width="3.2"/>
<circle clip-path="url(#clip522)" cx="2085.19" cy="697.13" r="14.4" fill="#009af9" fill-rule="evenodd" fill-opacity="1" stroke="#000000" stroke-opacity="1" stroke-width="3.2"/>
<circle clip-path="url(#clip522)" cx="2085.19" cy="773.294" r="14.4" fill="#009af9" fill-rule="evenodd" fill-opacity="1" stroke="#000000" stroke-opacity="1" stroke-width="3.2"/>
<path clip-path="url(#clip520)" d="M2024.94 196.789 L2283.91 196.789 L2283.91 93.1086 L2024.94 93.1086  Z" fill="#ffffff" fill-rule="evenodd" fill-opacity="1"/>
<polyline clip-path="url(#clip520)" style="stroke:#000000; stroke-linecap:round; stroke-linejoin:round; stroke-width:4; stroke-opacity:1; fill:none" points="2024.94,196.789 2283.91,196.789 2283.91,93.1086 2024.94,93.1086 2024.94,196.789 "/>
<circle clip-path="url(#clip520)" cx="2116.74" cy="144.949" r="20.48" fill="#009af9" fill-rule="evenodd" fill-opacity="1" stroke="#000000" stroke-opacity="1" stroke-width="4.55111"/>
<path clip-path="url(#clip520)" d="M2222.37 164.636 Q2220.57 169.266 2218.85 170.678 Q2217.14 172.09 2214.27 172.09 L2210.87 172.09 L2210.87 168.525 L2213.37 168.525 Q2215.13 168.525 2216.1 167.692 Q2217.07 166.858 2218.25 163.756 L2219.02 161.812 L2208.53 136.303 L2213.04 136.303 L2221.15 156.581 L2229.25 136.303 L2233.76 136.303 L2222.37 164.636 Z" fill="#000000" fill-rule="nonzero" fill-opacity="1" /><path clip-path="url(#clip520)" d="M2241.05 158.293 L2248.69 158.293 L2248.69 131.928 L2240.38 133.595 L2240.38 129.335 L2248.65 127.669 L2253.32 127.669 L2253.32 158.293 L2260.96 158.293 L2260.96 162.229 L2241.05 162.229 L2241.05 158.293 Z" fill="#000000" fill-rule="nonzero" fill-opacity="1" /></svg>
